<?xml version="1.0" encoding="UTF-8"?>
<svg id="Vrstva_2" data-name="Vrstva 2" xmlns="http://www.w3.org/2000/svg" viewBox="0 0 2574.23 481.64">
  <g id="Vrstva_1-2" data-name="Vrstva 1">
    <g>
      <path d="M1063.44,155.33c-1.32-6.13-36.05-39.06-42.81-39.8-24.26,5.94-48.78,16.91-73.11,21.99-22.83,4.76-31.76,9.19-48.69-9.41-27.69-30.4-37.96-70.39,1.09-95.94,2.38,18.78,2.31,25.89,17.44,38.17,30.88,25.07,71.75,24.93,108.62,17.01,15-3.22,36.06-12.47,49.75-13.61,3.83-.32,7.54-.98,10.76,1.87,11.27,18.28,42.13,45.56,44.53,66.63.63,5.52,1.11,27.93.04,32.26-.48,1.96-5.43,2.98-7.61,5.91-4.25,5.69-5.12,15.2-8.85,19.53-4.22,4.91-15.62,6.18-19.43,11.09-8.71,11.22-10.85,38.25-31.73,43.48v-99.19Z"/>
      <g>
        <path d="M568.55,130.8v188.57c0,4.12-11.58,11.29-16.03,11.46-8.94-.07-4.91-9.63-10.1-12.54,3.57,15.94-1.49,29.21-4.41,44.66,2.24,3.44,2.75-1.73,3.24-3.27,2.44-7.76,2.91-15.99,5.95-23.54l21.36-6.96v38.15c11.27,5.74,49.28,29.77,59.45,26.87,8.62-4,9.58-14.04,10.38-22.43l-.18-178.49c19.52-3.74,14.87-17.78,22.16-28.41,3.2-4.67,10.74-6.22,12.82-12.23-22.97,2.52-13.39,32.12-34.87,34.85,0-24.56,2.64-27.65-15.24-44.71-3.32-3.17-28.08-24.14-29.94-24.68-15.2-4.43-67.47,28.26-92.79,20.96-4.89-1.41-17.64-15.56-21.13-20.28-20.88-28.18-21.78-57.65,7.55-79.51,5.16,5.07,2.69,12.05,4.97,19.03,6.73,20.59,49.79,33.96,69.21,35.41,30.53,2.28,59.49-11.87,88.3-16.53l48.04,50.24,2.19,8.71-.54,235.16-109.62,75.8c-26.59-7.93-57.73-32.53-85.36-34.89-4.89-.42-17.24,3.48-18.23-1.29-1.23-5.93,23.04-16.32,21.67-26.25l.47-226.24,60.69-27.6Z"/>
        <path d="M102.04,393.48c1.34,9.49,11.78,26.67,22.72,25.1,5.91-.85,15.24-13.76,18.7-1.15-16.61,14.58-36.19,26.38-52.34,41.42-4.86,4.52-21.27,29.99-27.29,20.8-1.97-3.01-.84-16.2-4.27-24.06-8.36-19.17-25.54-30.74-46.27-26.55-5.45,1.1-3.04-6.77-.64-9.42,5.33-5.9,26.31-12.35,29.57-24.93l1.95-76.53c4.04-9.15,13.6-11.65,19.54-19.7,4.48-6.07,4.68-11.39,7.77-16.21,2.78-4.32,12.13-9.29,12.66-10.2,3.61-6.19-4.26-30.89,11.34-37.75l-.06-3.09c-21.55-6.96-3.56-36.8-23.88-41.53,11.13,9.22,6.89,17.82,9.21,28.92,1.24,5.94,9.12,12.56,7.93,17.4-.69,2.84-4.83,5.54-5.8,9.69-1.95,8.35,1.23,15.38-3.88,24.46-2.19,3.89-7.13,6.42-9.64,9.98-7.21,10.24-12.46,23.48-26.14,27.25l-2.27-157.65,61.12-23.27v123.17c13.93,9.39,42.34,31.98,55.73,12.13,8.5-12.6-.91-46.57,3.57-61.83,2.99-10.19,22.69-.53,21.39-17.85-3.56-1.7-2.8,4.41-8.21,7.04-3.87,1.88-11.17,4.04-13.62-.53v-41.42c0-4.56-33.3-32.56-38.59-33.4-23.67,1.27-67.49,26.51-89.47,17.58C18.75,125.61-.16,87.83,0,73c.14-12.98,12.62-34.31,24.62-40.3,5.48,3.99.57,9.13,1.52,15.75,3.25,22.55,48.74,38.75,68.54,40.65,29.05,2.79,56.44-9.05,83.9-16.13,6.63,1.44,38.48,43.67,42.83,52.89l-.53,127.02c-32.76,17.7-64.79,37.31-92.72,62.09-4.68,5.86-26.11-9.85-26.11-2.16,2.53,25.03-3.41,56.48,0,80.66Z"/>
        <path d="M298.25,335.7c-1.41,17.03-8.01,28.3-.39,45.08,2.7,5.94,13.16,18.77,19.45,20.02,5.2,1.03,15.57-11.66,17.39-.79.82,4.89-45.25,40.01-53.32,44.43-8.88,1.29-31.31-25.79-40.93-29.48l-26.15,16.63-3.34-5.42c13.12-19.37,35.11-31.46,44.72-53.44l55.1-234.67c-4.3-19.29-19.55-12.1-33.1-7.34-2.86-1.91-4.33-3.73-3.22-7.34s58.36-36.59,65.1-39.54c6.63-2.9,9.52-5.24,16.58-1.11,11.5,6.73,20.74,23.79,24.98,36.05,27.92,80.6,39.16,174.45,66.48,256.15,1.93,5.6,11.51,18.57,16.4,20.79,7,3.19,15.61-6.06,17.35,4.26l-56.78,43.68c-11.34,4.96-25.46-18.61-29.26-27.32-11.29-25.85-13.08-55.4-22.88-81.77-5.05-3.96-25.19,19.25-31.66,20.85-12.99-8.96-26.12-18.19-42.5-19.71ZM309.14,298.65h54.5c.88-15.14-14.84-32.53,2.38-42.32,13.83-7.86,22.65,4.8,32.49,12.9,1.73,1.42,4.33,5.75,6.54,2.18l-25.01-22.95-1.15-30.46c-3.7-.09-4.74-1.24-4.2,3.07,1.03,8.2,4.32,16.63.98,25.31l-20.73,13.03-20.73-76.32-25.07,115.56Z"/>
        <path d="M387.02.5c14.18-3.01,26.84,7.99,24.55,22.23-3.06,19.04-60.84,44.39-79.49,47.04l-2.37-4.44c7.53-11.06,18.34-19.63,26.11-30.64,9.73-13.79,11.93-30.1,31.2-34.19Z"/>
      </g>
      <g>
        <path d="M2229.71,174.95c-1.21-11.5-12.83-40.24-25.46-42.04-4.32-.62-16.12,10.88-18.14,2.76-1.45-5.83,13.75-16.61,18.59-20.61,6.61-5.47,30.26-24.3,37.05-24.22,10.77.13,27.02,28.12,35.31,30.38,9.69,2.63,19.35-11.44,26.76-2.91,1.95,7.07-23.76,23.44-26.04,37.14l2.01,235.37c.19,9.08,9.92,21.67,18.95,22.36,5.05.39,17.46-10.77,20.33,1.54l-65.52,45.86c-9.67,3.36-24.83-18-27.59-26.84-7.5-24.07,4.03-59.95-1.16-86.04l-44.94-68.64c-2.05-6.12,7.07-8.59,8.07-12.97,1.52-6.67-4.42-16.51,6.88-24.62l-9.81,4.33c-2.57,10.42,2.18,19.42-8.72,26.13l-33.79-45.74v66.49c0,2.27-14.81,17.46-15.33,28.31-.21,4.34.5,3.49,4.41,3.3,1-6.6,2.45-19.32,10.92-19.62v79.57c0,7.09,19.88,26.26,26.26,28.34,3.73,1.22,18.42-4.73,14.95,6.31-1.03,3.27-49,33.88-54.39,41.63-12.63,5.71-31.83-24.13-43-26.8s-40.85,11-12.55-15.75c15.27-14.43,20.74-11.19,22.91-35.94,1.47-16.71-2.05-32.41-2.24-47.84-.7-58.1.82-116.26-.03-174.36-1.97-8.23-11.42-19.79-20.38-18.69-5.84.72-9.36,7.58-14.49,1.22-1.83-2.27-2.62-2.53-1.1-5.54,4.69-9.28,47.2-31.69,56.3-41.98,12.04-5.61,19.46,6.07,25.63,14.66,10.57,14.71,55.75,85.79,60,99.19.68,2.15,1.49,4.22.93,6.51-5.07,4.22-21.06-1.64-19.56,6.61l24.01-3.43,23.94,36.14c-1.94-25.46,2.63-54.57,0-79.57Z"/>
        <path d="M1569.19,166.23c-2.2-15.45-20.7-41.59-38.1-27.24-7.22-5.64-1.44-9.63,3.2-14.2,5.31-5.25,42.49-33.59,47.09-33.81,16.76,4.35,24.18,22.29,37.17,32.4,6.15,1.16,20.72-14.12,26.93-5.07,2.27,8.2-29.32,27.07-28.2,39.34,4,71.43-5.81,149.46-.22,220.11,1.75,22.15,10.74,42.4,35.87,31.6l3.43,5.34c-.7,3.36-48.54,36.85-55.08,40.85-5.62,3.43-7.04,7.09-13.65,4.13-36.23-16.21-18.3-81.01-23.33-112l-44.98-68.6.73-4.89c11.25-6.99,5.26-11.88,6.44-19.82,1.01-6.78,7.38-8.9,7.79-15.12-19.09,5.17-3.64,23.75-18.51,32.66l-33.79-45.74v66.49c0,1.82-17.69,19.11-15.3,26.13.1,6.49,2.62,2.34,3.89-.49,2.41-5.37,3.49-13.81,11.41-13.66v86.11c0,2.86,18.16,20.16,21.92,21.81,5.18,2.27,20.69-5.14,17.11,6.3-1.25,3.99-49.74,34.78-55.87,42.41-9.89,2.76-29.21-23.93-39.77-27.14-6-1.83-24.69,5.3-26.22-1.99-1.39-6.66,35.59-25.54,34.75-37.15l-1.06-238.48c-4.11-6.55-10.54-16.01-19.38-15.35-5.88.44-13.9,10.2-16.57-1.11.05-8.52,49.31-36.52,56.85-45.71,14.56-5.91,22.64,11.09,29.15,20.83,20.21,30.23,35.95,63.72,57.03,93.48,3.35,7.09-3.31,9.66-9.2,10.26-4.22.43-10.99-5.12-9.49,2.89l24.01-3.43,23.94,36.14c-2.79-27.31,3.76-61.9,0-88.29Z"/>
        <path d="M1181.64,167.78l105.19-74.55,90.08,64.73.57,115.21c-9.06,14.09-3.33,10.89-2.17,21.56,2.12,19.48-.55,45.16-.22,65.61.15,9.36,3.94,19.04.98,29.42l-102.28,71.15-92.21-61.83.07-231.29ZM1314.13,237.08v-49.05c-17.37-10.44-40.56-32.38-58.43-39.82-7.01-2.92-13.51-1.24-13.51,7.12v184.21c-30.92-2.24-23.38-17.78-26.12-40.15l-6.58-1.25c4.83,9.46,6.2,25.19,3.9,35.49s-12.9,10.18-14.79,18.98c9.02,1.78,13.12-13.74,18.82-14.81,1.09-.2,19.58,5.5,21.14,6.46,6.85,4.18,2.05,12.89,4.07,19.91,1.85,6.4,57.83,43.51,63.74,43.06,2.33-.18,4.27-1.46,5.78-3.19l2.02-154.92c1.47-8.57,12.3-7.73,17.44-13.69s7.52-18.69,13.05-25.58c-1.72-3.3-5.24.29-6.61,2.11-6.95,9.34-4.71,26.59-23.94,25.11Z"/>
        <path d="M2035.24,391.42l-103.44,69.83-89.66-62.21-.49-230.18,104.13-75.34,4.81.72,86.85,63.72.57,113.03c-10.01,14.62-3.4,13.86-2.23,25.97,2.87,29.66-1.89,64.29-.52,94.46ZM1974.66,237.08v-46.87c-6.91-7.71-60.84-45.37-66.18-44.32-1.56.57-5.76,4.45-5.76,5.08v188.57l-23.41-7.11c-6.99-8.55,3.9-32.11-9.28-34.29,4.79,18.23,7.46,41.43-10.91,52.28,8.12,2.59,13.7-11.56,18.45-12.23,1.8-.25,21.52,5.54,23,6.77l2.62,22.47c11.52,6.47,53.43,40.68,63.74,39.75l5.75-3.13,1.87-158.99c20.29-4.87,19.57-18.75,30.61-33.05-11.43-4.89-10.59,14.77-15.85,20.12-1.8,1.83-13.35,6.35-14.66,4.96Z"/>
        <path d="M2471.69,191.3c2.18-2.27,12.13,4.65,14.14,6.57,1.53,1.45,16.87,20.52,17.44,21.8,3.23,7.26-1.72,21.01,7.63,26.13-3.52-7.73-.61-17.79-2.6-24.63-1.35-4.66-17.66-16.72-18.33-24.43-.42-4.85,7.27-14.8,1.3-22.87-4.62.48.07,7.87-.38,11.5-1.73,13.67-17.7,3.61-19.16-3.93-1.72-8.9,1.86-20.17-1.02-29.5-2.51-8.13-20.31-17.27-18.42-24.51,1.36-5.21,41.55-36.14,46.62-36.32,10.16-.35,25.56,25.85,33.2,27.94,8.62,2.35,17.41-9.41,26.76-8.4,4.31,10.75-8.4,14.9-14.19,21.78-7.11,8.44-10.81,16.12-11.94,27.29,4.42,69.05-5.97,145.52-.1,213.69.99,11.46,9.83,35.37,23.18,35.94,3.99.17,18.54-10.63,18.41,1.04-.09,7.43-48.91,39.82-56.16,48.75-13.84,3.81-34.17-30.2-38.96-41.29-9.25-1.52-56.21,40.63-69.56,43.68-3.21-.09-27.29-18.86-28.48-21.72-.97-2.34,3-4.06,2.98-7.21-.13-20.1-20.28-41.45-18.47-67.71.16-2.29,8.3-30.4,9.26-31.75,2.5-3.51,11.87-8.99,16.2-14.32,4.67-5.76,7.01-17.56,15.26-18.53v64.31c0,11.49,28.37,39.26,39.2,41.55,6.83,1.44,26.2-11.68,26.2-15.39v-199.47Z"/>
        <path d="M1131.02,182.58v204.92c-43.36,20.49-83.34,48.97-121.88,77.5-31.06-11.99-68.96-36.18-103.56-31.54-7.86,1.05-14.86,6.5-23.06,6.34-6.76-7.13,19.54-23.1,24-27.21,3.11-2.86,13.93-12.85,14.78-15.74l.9-100.48c9.78-3.02,17.73-17.07,27.87-11.34-7.65-22.06,11.22-36.72,22.77-52.46,4.68-6.37,5.93-16.01,14.31-19.48v168.95l60.38,29.01c2.92.03,13.66-10.24,14.79-12.7s3.14-28.19,3.4-33.66c1.51-31.93-3.83-63.62-1.81-95.55,3.4-15.18,22.92-23.99,25.22-28.17,2.94-5.33.55-16.54,9.18-26.81,6.8-8.09,14.72-6,18.6-9.74,4.62-4.46,2.38-21.83,14.13-21.84Z"/>
        <path d="M2345.25,363.52v-201.65c0-1.9-8.15-17.38-10.23-18.64-11.43-6.9-17.09,6.07-24.64-1.01-1.45-5.72,10.93-13.64,15.44-17.22,6.33-5.03,42.4-31.49,46.84-31.78,17.55-1.14,32.42,31.73,33.71,46.77,4.12,47.93-2.31,103.13-1.2,151.55-8.54,6.51-11.4,18.14-17.55,26.05-3.93,5.05-16.38,13.41-17.32,15.38-6.29,13.16,3.94,32.32-25.04,30.55Z"/>
        <path d="M1730.5,154.24l-33.66-8.68-27.36,17.39c-3.64-4.17,16.15-32.61,19.98-37.77,4.37-5.89,22.96-28.56,28.03-30.92,6.11-2.83,30.43,8.62,39.1,11.01,5.61,1.55,11.92,1.16,17.52,3.22l-6.52,7.61c6.46,4.73,7.31-7.31,9.27-9.24,1.2-1.18,8.35-2.33,11.84-4.53,8.86-5.56,17.21-11.79,25.76-17.79l3.28,5.35c-3.73,8.88-11.07,15.26-15.65,23.66-20.95,38.4-5.4,104.83-11,148.13-3.76,13.08-26.06,25.16-32.3,33.68-8.26,11.26-10.73,34.22-28.27,42v-183.12Z"/>
        <path d="M1793.72,403.85c-32.65,21.96-65.17,44.16-92.63,72.66l-46.61-30.4c-1.11-2.9-.34-5.67.9-8.38,1.54-3.33,32.15-38.93,34.76-38.94l34.95,23.65,5.4-3.33v-71.94c0-1.87,19.19-23.73,22.76-29.56,3.97-6.5,4.81-14.7,9.91-20.61,3.69-4.27,11.7-7.68,16.16-12.18.92-.92,14.38-23.31,14.38-11.78v130.8Z"/>
        <path d="M987.14,132.44v73.03c-15.12,23.58-40.13,43.7-42.49,73.05l-22.91,13.06v-125.35c0-.68-2.33-2.34-1.91-4.08.9-5.12,58.09-27.04,67.31-29.71Z"/>
        <path d="M2345.25,365.7c28.83-2.5,15.42,9.96,17.76,22.37.83,4.41,7.3,11.07,9.45,16.91,3.28,8.91,4.76,20.07,7.7,29.36-1.75,3.36-3.79.24-5.5-1.04-3.97-2.96-29.4-29-29.4-31.64v-35.97Z"/>
      </g>
    </g>
  </g>
</svg>